<?xml version="1.0" encoding="iso-8859-1"?>
<!-- Generator: Adobe Illustrator 19.0.0, SVG Export Plug-In . SVG Version: 6.00 Build 0)  -->
<svg version="1.1" id="Layer_1" xmlns="http://www.w3.org/2000/svg" xmlns:xlink="http://www.w3.org/1999/xlink" x="0px" y="0px"
	 viewBox="0 0 347.519 347.519" style="enable-background:new 0 0 347.519 347.519;" xml:space="preserve">
<g>
	<g>
		<path d="M340.335,269.012l-112.497-180.7l-24.254-38.875c-7.913-12.644-18.577-19.696-30.189-19.696
			c-11.525,0-22.276,7.052-30.189,19.696L7.315,268.754c-7.913,12.643-9.547,25.114-4.214,34.403
			c5.075,9.547,16.341,14.621,31.564,14.621H312.64c15.223,0,26.49-5.333,31.823-14.363
			C349.624,293.868,348.247,281.741,340.335,269.012z M339.733,300.318c-4.214,7.569-13.847,11.869-26.748,11.869H35.009
			c-12.987,0-22.534-4.214-26.748-11.869s-2.838-17.718,3.956-28.726L148.109,52.274c6.794-11.009,15.825-17.201,25.372-17.201
			c9.289,0,18.32,6.192,25.63,17.201l24.254,38.875l112.497,180.701C342.571,282.515,343.947,292.664,339.733,300.318z"/>
	</g>
</g>
<g>
	<g>
		<path d="M329.153,276.065L206.421,79.28c-0.86-1.118-2.494-1.72-3.956-0.86c-1.118,0.86-1.72,2.494-0.86,3.956l122.646,196.784
			c4.472,7.569,4.816,12.643,3.698,14.965c-1.376,2.236-5.935,4.817-14.965,4.817H35.009c-7.311,0-13.245-1.978-14.965-4.817
			c-1.72-2.839-0.258-8.773,3.698-14.965L159.633,59.843c4.214-6.794,9.289-10.751,13.847-10.751s9.547,3.956,13.847,10.751
			c0.86,1.118,2.494,1.72,3.956,0.86c1.118-0.86,1.72-2.494,0.86-3.956c-5.333-8.429-12.127-13.245-18.577-13.245
			s-13.245,4.816-18.577,13.245L19.098,276.065c-5.333,8.171-6.794,15.826-3.956,20.556c2.494,4.817,9.891,7.569,19.696,7.569
			h277.975c9.891,0,17.201-2.838,20.298-7.569C335.604,291.804,334.228,284.236,329.153,276.065z"/>
	</g>
</g>
<g>
	<g>
		<path d="M173.739,108.351c-9.03,0-16.341,7.311-16.341,16.341v98.135c0,9.03,7.311,16.341,16.341,16.341
			c9.031,0,16.341-7.311,16.341-16.341v-98.135C190.08,115.661,182.769,108.351,173.739,108.351z M184.404,222.826
			c0,5.935-4.816,10.751-10.751,10.751c-5.935,0-10.751-4.816-10.751-10.751v-98.134c0-5.935,4.816-10.751,10.751-10.751
			c5.935,0,10.751,4.816,10.751,10.751V222.826z"/>
	</g>
</g>
<g>
	<g>
		<path d="M184.92,254.649c-3.011-3.097-7.225-4.817-11.525-4.817c-4.214,0-8.429,1.72-11.525,4.817
			c-3.096,3.097-4.816,7.311-4.816,11.525s1.72,8.429,4.816,11.525c3.096,3.097,7.311,4.817,11.525,4.817
			c4.472,0,8.773-1.72,11.525-4.817c3.096-3.097,4.816-7.311,4.816-11.525S188.016,257.746,184.92,254.649z M181.05,273.828
			c-1.978,1.978-4.816,3.097-7.569,3.097c-2.753,0-5.677-1.118-7.569-3.097c-1.978-1.978-3.096-4.817-3.096-7.569
			s1.118-5.677,3.096-7.569c1.978-1.978,4.816-3.097,7.569-3.097c2.753,0,5.677,1.118,7.569,3.097
			c1.978,1.978,3.096,4.817,3.096,7.569C184.145,269.012,183.028,271.85,181.05,273.828z"/>
	</g>
</g>
<g>
</g>
<g>
</g>
<g>
</g>
<g>
</g>
<g>
</g>
<g>
</g>
<g>
</g>
<g>
</g>
<g>
</g>
<g>
</g>
<g>
</g>
<g>
</g>
<g>
</g>
<g>
</g>
<g>
</g>
</svg>
